<svg xmlns="http://www.w3.org/2000/svg" width="1440" height="900" viewBox="0 0 1440 900" fill="none">
<rect width="1440" height="900" fill="none"/><rect width="1440" height="76" fill="#FFF"/><path d="M0 75.5h1440" stroke="#E4E7E2"/><text x="46" y="48" fill="#23392E" font-family="Arial,sans-serif" font-size="28" font-weight="700" letter-spacing="-1.5">fabrica</text><path d="M186 17v42" stroke="#E5E8E3"/><text x="214" y="46" fill="#34443A" font-family="Arial,sans-serif" font-size="14">Estudio Norte</text><g font-family="Arial,sans-serif" font-size="14"><rect x="810" y="75" width="106" height="2" fill="#2D6449"/><text x="519" y="47" fill="#657168">▦  Panel</text><text x="648" y="47" fill="#657168">♧  Mesa de trabajo</text><text x="832" y="47" fill="#2D6449">⬡  Modelo 3D</text><text x="1000" y="47" fill="#657168">♙  Equipo</text><rect x="1193" y="17" width="103" height="42" rx="5" fill="#FFF" stroke="#DCE2DC"/><text x="1211" y="43" fill="#425047" font-size="13">◉  Recorrido</text><rect x="1307" y="17" width="89" height="42" rx="5" fill="#2D6449"/><text x="1323" y="43" fill="#FFF" font-size="13">↗  Compartir</text></g>
<rect y="76" width="1440" height="65" fill="#FFF"/><path d="M0 140.5h1440" stroke="#E4E7E2"/><g font-family="Arial,sans-serif"><path d="M780 91v38" stroke="#E4E7E2"/><text x="801" y="115" fill="#34443A" font-size="14" font-weight="600">Seleccioná un asset</text><rect x="957" y="98" width="39" height="22" rx="11" fill="#E8ECE7"/><circle cx="968" cy="109" r="8" fill="#FFF"/><rect x="1020" y="88" width="176" height="42" rx="5" fill="#FFF" stroke="#DCE2DC"/><text x="1043" y="114" fill="#425047" font-size="13">⬡　Herramientas　⌄</text><rect x="1208" y="88" width="188" height="42" rx="5" fill="#FFF" stroke="#DCE2DC"/><text x="1231" y="114" fill="#425047" font-size="13">▣　Comentarios　</text><circle cx="1367" cy="109" r="13" fill="#B86F4E"/><text x="1363" y="114" fill="#FFF" font-size="11" font-weight="700">5</text></g>
<defs><clipPath id="viewer"><rect y="141" width="1440" height="659"/></clipPath><linearGradient id="viewerShade" x1="0" y1="0" x2="0" y2="1"><stop stop-color="#F4F5F1" stop-opacity=".12"/><stop offset=".78" stop-color="#E6E8E2" stop-opacity="0"/><stop offset="1" stop-color="#D9DDD5" stop-opacity=".42"/></linearGradient></defs>
<g clip-path="url(#viewer)"><rect y="141" width="1440" height="659" fill="url(#viewerShade)"/></g>
<rect x="254" y="158" width="932" height="36" rx="18" fill="#30372F" fill-opacity=".78"/><text x="278" y="181" fill="#FFF" fill-opacity=".9" font-family="Arial,sans-serif" font-size="12">⌁　Arrastrá: orbitar · Central: orbitar · Shift + central: desplazar · Rueda: zoom · Doble clic: acercarse</text><rect x="1201" y="158" width="195" height="36" rx="6" fill="#FFF" fill-opacity=".94"/><text x="1223" y="181" fill="#425047" font-family="Arial,sans-serif" font-size="12">♙　2 en esta entrega　<u>Ocultar</u></text>
<rect x="22" y="632" width="472" height="58" rx="7" fill="#FFF" fill-opacity=".94" stroke="#DCE2DC"/><path d="M76 645v32m45-32v32m45-32v32m45-32v32m45-32v32m45-32v32m45-32v32m45-32v32m45-32v32" stroke="#E2E6E1"/><g stroke="#425047" stroke-width="1.8" stroke-linecap="round" stroke-linejoin="round"><path d="M39 663c0-8 12-11 18-5m0 0-1-6m1 6-6 1"/><rect x="86" y="653" width="16" height="16" rx="2"/><path d="m130 669 14-16m-14 0 14 16M175 661h17m-8-8v17M220 661h17M265 653v16m-8-8h16M310 653l15 8-15 8v-16ZM354 668l16-14m-12 0h12v12M400 661a9 9 0 1 1 18 0 9 9 0 0 1-18 0Zm9-4v8m-4-4h8M447 668l15-15m-10 0h10v10"/></g>
<rect x="22" y="701" width="270" height="48" rx="7" fill="#FFF" fill-opacity=".94" stroke="#DCE2DC"/><path d="M43 719h18v13H43zM47 719l2-4h6l2 4" stroke="#657168" stroke-width="1.5"/><text x="72" y="731" fill="#657168" font-family="Arial,sans-serif" font-size="13">Cámara</text><path d="M139 711v28" stroke="#E2E6E1"/><path d="M160 725h12m-6-6v12" stroke="#2D6449" stroke-width="1.6"/><text x="182" y="731" fill="#2D6449" font-family="Arial,sans-serif" font-size="13" font-weight="600">Guardar vista</text>
<circle cx="1000" cy="489" r="17" fill="#2D6449" stroke="#FFF" stroke-width="4"/><text x="995" y="494" fill="#FFF" font-family="Arial,sans-serif" font-size="12" font-weight="700">1</text><path d="M1017 489h42" stroke="#FFF" stroke-width="3"/><rect x="1058" y="453" width="264" height="76" rx="7" fill="#FFF" fill-opacity=".96" stroke="#DDE2DC"/><text x="1078" y="482" fill="#34443A" font-family="Arial,sans-serif" font-size="13" font-weight="600">Acceso al patio</text><text x="1078" y="506" fill="#758176" font-family="Arial,sans-serif" font-size="12">Revisar apertura y circulación</text>
<rect x="0" y="800" width="1440" height="100" fill="#FFF"/><path d="M0 800h1440" stroke="#E0E4DE"/><text x="44" y="831" fill="#758176" font-family="Arial,sans-serif" font-size="11" font-weight="700" letter-spacing="1">ENTREGAS</text><text x="45" y="871" fill="#34443A" font-family="Arial,sans-serif" font-size="14" font-weight="600">Casa Patio · Iteración 04</text><circle cx="286" cy="863" r="4" fill="#2D6449"/><text x="301" y="868" fill="#34443A" font-family="Arial,sans-serif" font-size="13">Propuesta de materiales</text><text x="570" y="868" fill="#758176" font-family="Arial,sans-serif" font-size="13">18 sep</text><circle cx="671" cy="863" r="4" fill="#C7CDC5"/><text x="686" y="868" fill="#758176" font-family="Arial,sans-serif" font-size="13">Ajustes de distribución</text><text x="910" y="868" fill="#758176" font-family="Arial,sans-serif" font-size="13">12 sep</text><rect x="1250" y="828" width="146" height="42" rx="5" fill="#2D6449"/><text x="1270" y="854" fill="#FFF" font-family="Arial,sans-serif" font-size="13" font-weight="600">Nueva entrega　+</text>
</svg>
